<mxfile host="app.diagrams.net" modified="2023-08-24T02:54:41.641Z" agent="Mozilla/5.0 (Macintosh; Intel Mac OS X 10_15_7) AppleWebKit/537.36 (KHTML, like Gecko) Chrome/115.0.0.0 Safari/537.36" version="21.6.9" etag="nmYocGnb5nIuhZzDMjkg" type="github">
  <diagram name="페이지-1" id="oXGt_7W3Gb8QVGCmv1T_">
    <mxGraphModel>
      <root>
        <mxCell id="0" />
        <mxCell id="1" parent="0" />
      </root>
    </mxGraphModel>
  </diagram>
</mxfile>
